HIERARCHY
ROOT Hips
{
	OFFSET 0.000000 0.000000 0.000000
	CHANNELS 6 Xposition Yposition Zposition Zrotation Yrotation Xrotation 
	JOINT LowerBack
	{
		OFFSET 0.000000 0.000000 0.000000
		CHANNELS 3 Zrotation Yrotation Xrotation
		JOINT Spine
		{
			OFFSET 0.028270 2.035590 -0.193380
			CHANNELS 3 Zrotation Yrotation Xrotation
			JOINT Spine1
			{
				OFFSET 0.056720 2.048850 -0.042750
				CHANNELS 3 Zrotation Yrotation Xrotation
				JOINT Neck
				{
					OFFSET 0.000000 0.000000 0.000000
					CHANNELS 3 Zrotation Yrotation Xrotation
					JOINT Neck1
					{
						OFFSET -0.054170 1.746240 0.172020
						CHANNELS 3 Zrotation Yrotation Xrotation
						JOINT Head
						{
							OFFSET 0.104070 1.761360 -0.123970
							CHANNELS 3 Zrotation Yrotation Xrotation
							End Site
							{
								OFFSET 0.000000 0.000000 0.000000
							}
						}
					}
				}
				JOINT LeftShoulder
				{
					OFFSET 0.000000 0.000000 0.000000
					CHANNELS 3 Zrotation Yrotation Xrotation
					JOINT LeftArm
					{
						OFFSET 3.362410 1.200890 -0.311210
						CHANNELS 3 Zrotation Yrotation Xrotation
						JOINT LeftForeArm
						{
							OFFSET 4.983000 -0.000000 -0.000000
							CHANNELS 3 Zrotation Yrotation Xrotation
							JOINT LeftHand
							{
								OFFSET 3.483560 -0.000000 -0.000000
								CHANNELS 3 Zrotation Yrotation Xrotation
								JOINT LeftFingerBase
								{
									OFFSET 0.000000 0.000000 0.000000
									CHANNELS 3 Zrotation Yrotation Xrotation
									JOINT LeftHandIndex1
									{
										OFFSET 0.715260 -0.000000 -0.000000
										CHANNELS 3 Zrotation Yrotation Xrotation
										End Site
										{
											OFFSET 0.000000 0.000000 0.000000
										}
									}
								}
								JOINT LThumb
								{
									OFFSET 0.000000 0.000000 0.000000
									CHANNELS 3 Zrotation Yrotation Xrotation
									End Site
									{
										OFFSET 0.000000 0.000000 0.000000
									}
								}
							}
						}
					}
				}
				JOINT RightShoulder
				{
					OFFSET 0.000000 0.000000 0.000000
					CHANNELS 3 Zrotation Yrotation Xrotation
					JOINT RightArm
					{
						OFFSET -3.136600 1.374050 -0.404650
						CHANNELS 3 Zrotation Yrotation Xrotation
						JOINT RightForeArm
						{
							OFFSET -5.241900 -0.000000 -0.000000
							CHANNELS 3 Zrotation Yrotation Xrotation
							JOINT RightHand
							{
								OFFSET -3.444170 -0.000000 -0.000000
								CHANNELS 3 Zrotation Yrotation Xrotation
								JOINT RightFingerBase
								{
									OFFSET 0.000000 0.000000 0.000000
									CHANNELS 3 Zrotation Yrotation Xrotation
									JOINT RightHandIndex1
									{
										OFFSET -0.622530 -0.000000 -0.000000
										CHANNELS 3 Zrotation Yrotation Xrotation
										End Site
										{
											OFFSET 0.000000 0.000000 0.000000
										}
									}
								}
								JOINT RThumb
								{
									OFFSET 0.000000 0.000000 0.000000
									CHANNELS 3 Zrotation Yrotation Xrotation
									End Site
									{
										OFFSET 0.000000 0.000000 0.000000
									}
								}
							}
						}
					}
				}
			}
		}
	}
}
}
MOTION
Frames: 11
Frame Time: 0.008333
24.676602 15.365824 1.883848 142.807754 -86.856876 -114.893401 -6.115623 1.611783 -7.971441 -2.156519 1.927148 -5.278028 -5.481038 1.768467 -1.824079 7.619833 0.706913 -4.798501 -3.325575 -0.296036 0.724878 0.000000 0.000000 0.000000 -3.676318 7.668476 4.445039 -57.789927 26.992500 1.743301 -5.126073 -4.867388 -0.004380 2.614436 2.328617 0.057143 -0.150158 -0.049033 -0.000000 0.000000 0.000000 0.000000 0.000000 0.000000 0.000000 12.143905 8.975974 -0.172757 76.964239 55.018736 40.756247 1.211920 55.017822 0.001841 0.785104 9.838958 0.075272 -0.038046 -0.462293 -0.000000 0.000000 0.000000 0.000000 0.000000 0.000000 0.000000 
24.408257 15.383502 1.879908 140.742952 -86.863688 -112.566044 -6.381811 1.572863 -8.229280 -2.241799 1.917958 -5.330587 -5.562854 1.759035 -1.839202 7.805568 0.748208 -4.821757 -3.387032 -0.300360 0.714021 0.000000 0.000000 0.000000 -3.504521 7.501837 4.442879 -57.647565 26.135057 1.303977 -5.098366 -4.217397 -0.003980 3.044758 2.252241 0.063749 -0.147824 -0.043924 -0.000000 0.000000 0.000000 0.000000 0.000000 0.000000 0.000000 12.590144 8.969309 -0.103165 76.985281 54.206440 39.775553 1.232687 54.368502 0.000306 0.455657 9.951648 0.045620 -0.032031 -0.465179 -0.000000 0.000000 0.000000 0.000000 0.000000 0.000000 0.000000 
24.138802 15.408389 1.878479 139.076746 -86.891040 -110.671574 -6.588819 1.530103 -8.459905 -2.314258 1.900109 -5.374248 -5.649481 1.740797 -1.842570 7.990427 0.800581 -4.838893 -3.454696 -0.305143 0.704810 0.000000 0.000000 0.000000 -3.336018 7.338333 4.436832 -57.600444 25.170437 0.917900 -5.057874 -3.599332 -0.003529 3.507338 2.148724 0.069458 -0.144732 -0.038953 -0.000000 0.000000 0.000000 0.000000 0.000000 0.000000 0.000000 13.059407 8.955248 -0.033187 77.012664 53.245294 38.813052 1.256943 53.671104 -0.001297 0.096793 10.078053 0.012367 -0.024944 -0.466754 -0.000000 0.000000 0.000000 0.000000 0.000000 0.000000 0.000000 
23.869679 15.440506 1.878905 137.484399 -86.930547 -108.909644 -6.752845 1.478432 -8.640442 -2.377064 1.869376 -5.406309 -5.741109 1.709488 -1.841845 8.176356 0.865163 -4.839547 -3.526845 -0.310372 0.700101 0.000000 0.000000 0.000000 -3.168835 7.142182 4.427528 -57.658938 24.146000 0.562010 -5.008379 -3.046384 -0.003093 3.980465 2.031227 0.074070 -0.141094 -0.034156 -0.000000 0.000000 0.000000 0.000000 0.000000 0.000000 0.000000 13.549606 8.930578 0.034749 77.065356 52.143701 37.878328 1.283459 52.891980 -0.002940 -0.284343 10.212302 -0.023790 -0.017134 -0.466793 -0.000000 0.000000 0.000000 0.000000 0.000000 0.000000 0.000000 
23.602112 15.479557 1.881305 135.962321 -86.980332 -107.284038 -6.869113 1.417296 -8.759161 -2.427626 1.824311 -5.423192 -5.832512 1.663624 -1.833203 8.353923 0.941381 -4.825928 -3.599195 -0.315660 0.699407 0.000000 0.000000 0.000000 -2.995644 6.940646 4.415527 -57.833615 23.020463 0.258288 -4.949617 -2.536562 -0.002710 4.447096 1.903982 0.077182 -0.137052 -0.029403 -0.000000 0.000000 0.000000 0.000000 0.000000 0.000000 0.000000 14.030040 8.891854 0.089794 77.175243 50.916419 36.976022 1.310641 51.998217 -0.004555 -0.673218 10.350895 -0.061656 -0.009069 -0.464998 -0.000000 0.000000 0.000000 0.000000 0.000000 0.000000 0.000000 
23.337472 15.525336 1.884607 134.288312 -87.023781 -105.580861 -6.961550 1.343527 -8.807900 -2.470765 1.763359 -5.425285 -5.923991 1.601361 -1.824517 8.527209 1.028198 -4.789327 -3.669947 -0.320977 0.705100 0.000000 0.000000 0.000000 -2.815863 6.693521 4.400642 -58.121331 21.851855 -0.000390 -4.886048 -2.117056 -0.002444 4.883382 1.787418 0.079196 -0.132859 -0.024766 -0.000000 0.000000 0.000000 0.000000 0.000000 0.000000 0.000000 14.501243 8.835469 0.133910 77.352426 49.576230 36.094367 1.338260 50.960242 -0.006052 -1.050760 10.486672 -0.099332 -0.001260 -0.461229 -0.000000 0.000000 0.000000 0.000000 0.000000 0.000000 0.000000 
23.076301 15.577353 1.888879 132.587981 -87.062164 -103.919989 -7.023481 1.258471 -8.789454 -2.503608 1.687071 -5.410925 -6.010613 1.523169 -1.807912 8.688221 1.120296 -4.738288 -3.735357 -0.325904 0.714925 0.000000 0.000000 0.000000 -2.622559 6.443297 4.382019 -58.518440 20.579419 -0.178218 -4.817069 -1.756855 -0.002318 5.274768 1.685107 0.080310 -0.128669 -0.020074 -0.000000 0.000000 0.000000 0.000000 0.000000 0.000000 0.000000 14.935750 8.755683 0.159515 77.616197 48.147235 35.222195 1.365928 49.753526 -0.007323 -1.397523 10.619423 -0.134823 0.005847 -0.455294 -0.000000 0.000000 0.000000 0.000000 0.000000 0.000000 0.000000 
22.819347 15.635222 1.893212 130.763605 -87.082716 -102.200699 -7.073052 1.161046 -8.705527 -2.530074 1.595839 -5.382274 -6.093293 1.429173 -1.790056 8.840813 1.216707 -4.667871 -3.794620 -0.330452 0.730193 0.000000 0.000000 0.000000 -2.422996 6.154982 4.358649 -59.006466 19.261191 -0.263135 -4.747034 -1.511178 -0.002364 5.600732 1.618734 0.081526 -0.124704 -0.015444 -0.000000 0.000000 0.000000 0.000000 0.000000 0.000000 0.000000 15.337222 8.651490 0.172911 77.960949 46.643391 34.325439 1.394405 48.363597 -0.008256 -1.690753 10.741476 -0.165628 0.011813 -0.447163 -0.000000 0.000000 0.000000 0.000000 0.000000 0.000000 0.000000 
22.566643 15.698487 1.897313 128.877773 -87.083714 -100.477267 -7.112048 1.052013 -8.563239 -2.550294 1.490727 -5.340055 -6.170731 1.320437 -1.768029 8.983519 1.313626 -4.584046 -3.846669 -0.334459 0.749226 0.000000 0.000000 0.000000 -2.221320 5.844488 4.329145 -59.563200 17.883612 -0.221595 -4.677331 -1.387380 -0.002581 5.849346 1.595326 0.083641 -0.121093 -0.010851 -0.000000 0.000000 0.000000 0.000000 0.000000 0.000000 0.000000 15.698746 8.520917 0.175662 78.381925 45.085461 33.371006 1.424560 46.784245 -0.008771 -1.912531 10.849441 -0.189450 0.016376 -0.436818 -0.000000 0.000000 0.000000 0.000000 0.000000 0.000000 0.000000 
22.318436 15.766788 1.900899 126.979624 -87.062204 -98.789495 -7.144330 0.932330 -8.372309 -2.565328 1.373304 -5.286186 -6.243065 1.198568 -1.741121 9.116747 1.408447 -4.491600 -3.891645 -0.337886 0.770650 0.000000 0.000000 0.000000 -2.026733 5.517511 4.292094 -60.160380 16.453331 -0.022291 -4.609897 -1.408467 -0.002956 6.012419 1.621340 0.087058 -0.117924 -0.006339 -0.000000 0.000000 0.000000 0.000000 0.000000 0.000000 0.000000 16.021253 8.364236 0.172575 78.864244 43.490828 32.318570 1.457657 45.019204 -0.008833 -2.052436 10.940317 -0.205084 0.019457 -0.424358 -0.000000 0.000000 0.000000 0.000000 0.000000 0.000000 0.000000 
22.074038 15.839743 1.903617 125.124010 -87.013796 -97.178878 -7.176319 0.802622 -8.145556 -2.577055 1.245087 -5.223610 -6.311486 1.065115 -1.709890 9.242969 1.501846 -4.394358 -3.930701 -0.340785 0.793304 0.000000 0.000000 0.000000 -1.850033 5.176193 4.246696 -60.765818 14.987028 0.361351 -4.546556 -1.603478 -0.003450 6.087316 1.697794 0.091976 -0.115237 -0.001992 -0.000000 0.000000 0.000000 0.000000 0.000000 0.000000 0.000000 16.312205 8.185604 0.169954 79.385629 41.870895 31.118280 1.494868 43.085376 -0.008439 -2.102476 11.006139 -0.211230 0.021050 -0.409944 -0.000000 0.000000 0.000000 0.000000 0.000000 0.000000 0.000000 
